# Blender 4.1.1
# www.blender.org
mtllib coin.mtl
o Cylinder
v -0.068873 2.273649 -1.000000
v 0.068873 2.273649 -1.000000
v -0.068873 1.890966 -0.923880
v 0.068873 1.890966 -0.923880
v -0.068873 1.566543 -0.707107
v 0.068873 1.566543 -0.707107
v -0.068873 1.349770 -0.382683
v 0.068873 1.349770 -0.382683
v -0.068873 1.273649 0.000000
v 0.068873 1.273649 0.000000
v -0.068873 1.349770 0.382683
v 0.068873 1.349770 0.382683
v -0.068873 1.566543 0.707107
v 0.068873 1.566543 0.707107
v -0.068873 1.890966 0.923880
v 0.068873 1.890966 0.923880
v -0.068873 2.273649 1.000000
v 0.068873 2.273649 1.000000
v -0.068873 2.656333 0.923880
v 0.068873 2.656333 0.923880
v -0.068873 2.980756 0.707107
v 0.068873 2.980756 0.707107
v -0.068873 3.197529 0.382683
v 0.068873 3.197529 0.382683
v -0.068873 3.273649 0.000000
v 0.068873 3.273649 0.000000
v -0.068873 3.197529 -0.382683
v 0.068873 3.197529 -0.382683
v -0.068873 2.980756 -0.707107
v 0.068873 2.980756 -0.707107
v -0.068873 2.656333 -0.923880
v 0.068873 2.656333 -0.923880
vn -0.0000 -0.1951 -0.9808
vn -0.0000 -0.5556 -0.8315
vn -0.0000 -0.8315 -0.5556
vn -0.0000 -0.9808 -0.1951
vn -0.0000 -0.9808 0.1951
vn -0.0000 -0.8315 0.5556
vn -0.0000 -0.5556 0.8315
vn -0.0000 -0.1951 0.9808
vn -0.0000 0.1951 0.9808
vn -0.0000 0.5556 0.8315
vn -0.0000 0.8315 0.5556
vn -0.0000 0.9808 0.1951
vn -0.0000 0.9808 -0.1951
vn -0.0000 0.8315 -0.5556
vn 1.0000 -0.0000 -0.0000
vn -0.0000 0.5556 -0.8315
vn -0.0000 0.1951 -0.9808
vn -1.0000 -0.0000 -0.0000
vt 0.500000 0.261668
vt 0.535111 0.162212
vt 0.535111 0.261668
vt 0.500000 0.162212
vt 0.535111 0.070326
vt 0.500000 0.070326
vt 0.535111 -0.000000
vt 0.535111 0.283227
vt 0.570222 0.191342
vt 0.570222 0.283227
vt 0.535111 0.191342
vt 0.570222 0.091886
vt 0.535111 0.091886
vt 0.570222 -0.000000
vt 0.535111 0.566455
vt 0.570222 0.474569
vt 0.570222 0.566455
vt 0.535111 0.474569
vt 0.570222 0.375113
vt 0.535111 0.375113
vt 0.570222 0.283227
vt 0.500000 0.847759
vt 0.535111 0.777433
vt 0.535111 0.847759
vt 0.500000 0.777433
vt 0.535111 0.685547
vt 0.500000 0.685547
vt 0.535111 0.586091
vt 0.500000 0.586091
vt 0.535111 0.494206
vt 0.500000 0.494206
vt 0.535111 0.423880
vt 0.038060 0.391614
vt 0.108386 0.038060
vt 0.461940 0.108386
vt 0.500000 0.423880
vt 0.535111 0.353553
vt 0.535111 0.423880
vt 0.500000 0.353553
vt -0.000000 0.799728
vt 0.200272 0.500000
vt 0.500000 0.700272
vt 0.500000 -0.000000
vt 0.535111 -0.000000
vt 0.535111 0.283227
vt 0.500000 0.423880
vt 0.500000 0.200272
vt 0.500000 0.299728
vt 0.461940 0.391614
vt 0.391614 0.461940
vt 0.299728 0.500000
vt 0.200272 0.500000
vt 0.108386 0.461940
vt -0.000000 0.299728
vt -0.000000 0.200272
vt 0.038060 0.108386
vt 0.200272 -0.000000
vt 0.299728 -0.000000
vt 0.391614 0.038060
vt 0.500000 0.799728
vt 0.461940 0.891614
vt 0.391614 0.961940
vt 0.299728 1.000000
vt 0.200272 1.000000
vt 0.108386 0.961940
vt 0.038060 0.891614
vt -0.000000 0.700272
vt 0.038060 0.608386
vt 0.108386 0.538060
vt 0.299728 0.500000
vt 0.391614 0.538060
vt 0.461940 0.608386
s 0
usemtl Color
f 2/1/1 3/2/1 1/3/1
f 4/4/2 5/5/2 3/2/2
f 6/6/3 7/7/3 5/5/3
f 8/8/4 9/9/4 7/10/4
f 10/11/5 11/12/5 9/9/5
f 12/13/6 13/14/6 11/12/6
f 14/15/7 15/16/7 13/17/7
f 16/18/8 17/19/8 15/16/8
f 18/20/9 19/21/9 17/19/9
f 20/22/10 21/23/10 19/24/10
f 22/25/11 23/26/11 21/23/11
f 24/27/12 25/28/12 23/26/12
f 26/29/13 27/30/13 25/28/13
f 28/31/14 29/32/14 27/30/14
f 22/33/15 14/34/15 6/35/15
f 30/36/16 31/37/16 29/38/16
f 32/39/17 1/3/17 31/37/17
f 15/40/18 23/41/18 31/42/18
f 2/1/1 4/4/1 3/2/1
f 4/4/2 6/6/2 5/5/2
f 6/6/3 8/43/3 7/7/3
f 8/8/4 10/11/4 9/9/4
f 10/11/5 12/13/5 11/12/5
f 12/13/6 14/44/6 13/14/6
f 14/15/7 16/18/7 15/16/7
f 16/18/8 18/20/8 17/19/8
f 18/20/9 20/45/9 19/21/9
f 20/22/10 22/25/10 21/23/10
f 22/25/11 24/27/11 23/26/11
f 24/27/12 26/29/12 25/28/12
f 26/29/13 28/31/13 27/30/13
f 28/31/14 30/46/14 29/32/14
f 6/35/15 4/47/15 2/48/15
f 2/48/15 32/49/15 6/35/15
f 32/49/15 30/50/15 6/35/15
f 30/50/15 28/51/15 22/33/15
f 28/51/15 26/52/15 22/33/15
f 26/52/15 24/53/15 22/33/15
f 22/33/15 20/54/15 14/34/15
f 20/54/15 18/55/15 14/34/15
f 18/55/15 16/56/15 14/34/15
f 14/34/15 12/57/15 10/58/15
f 10/58/15 8/59/15 14/34/15
f 8/59/15 6/35/15 14/34/15
f 6/35/15 30/50/15 22/33/15
f 30/36/16 32/39/16 31/37/16
f 32/39/17 2/1/17 1/3/17
f 31/42/18 1/60/18 3/61/18
f 3/61/18 5/62/18 31/42/18
f 5/62/18 7/63/18 31/42/18
f 7/63/18 9/64/18 11/65/18
f 11/65/18 13/66/18 7/63/18
f 13/66/18 15/40/18 7/63/18
f 15/40/18 17/67/18 19/68/18
f 19/68/18 21/69/18 15/40/18
f 21/69/18 23/41/18 15/40/18
f 23/41/18 25/70/18 27/71/18
f 27/71/18 29/72/18 23/41/18
f 29/72/18 31/42/18 23/41/18
f 31/42/18 7/63/18 15/40/18
