# Blender 4.1.1
# www.blender.org
mtllib gate.mtl
o Gate
v -3.001355 -0.011128 -0.686116
v -3.001355 1.879709 -0.540074
v -2.464927 -0.011128 -0.427787
v -2.579108 1.879709 -0.336731
v -2.332441 -0.011128 0.152675
v -2.474821 1.879709 0.120178
v -2.703660 -0.011128 0.618170
v -2.767025 1.879709 0.486590
v -3.299049 -0.011128 0.618170
v -3.235684 1.879709 0.486590
v -3.670269 -0.011128 0.152675
v -3.527888 1.879709 0.120178
v -3.537782 -0.011128 -0.427787
v -3.423602 1.879709 -0.336731
v -3.336382 1.589359 0.309490
v -3.316880 6.307372 0.291066
v -3.336382 1.589359 -0.309490
v -3.316880 6.307372 -0.291066
v -2.681207 1.589359 0.309490
v -2.700709 6.307372 0.291066
v -2.681207 1.589359 -0.309490
v -2.700709 6.307372 -0.291066
v -3.312782 6.889951 0.289021
v -3.312782 6.889951 -0.289021
v -2.704808 6.889951 -0.289021
v -2.704808 6.889951 0.289021
v 0.000000 6.856381 -0.217084
v 0.000000 6.358080 -0.217084
v 0.000000 6.856381 0.217084
v 0.000000 6.358080 0.217084
v -4.008617 6.856381 -0.217084
v -4.008617 6.358080 -0.217084
v -4.008617 6.856381 0.217084
v -4.008617 6.358080 0.217084
v -2.704808 7.700389 0.289021
v -2.704808 7.700389 -0.289021
v -3.312782 7.700389 -0.289021
v -3.312782 7.700389 0.289021
v -4.605825 7.902919 0.238054
v -4.605825 8.542006 0.238054
v -4.605825 7.902919 -0.238054
v -4.605825 8.542006 -0.238054
v 0.000000 7.902919 0.238054
v 0.000000 8.542006 0.238054
v 0.000000 7.902919 -0.238054
v 0.000000 8.542006 -0.238054
v -3.012185 7.674468 -0.592286
v -3.012185 7.935365 -0.592286
v -2.499250 7.674468 -0.296143
v -2.499250 7.935365 -0.296143
v -2.499250 7.674468 0.296143
v -2.499250 7.935365 0.296143
v -3.012185 7.674468 0.592286
v -3.012185 7.935365 0.592286
v -3.525119 7.674468 0.296143
v -3.525119 7.935365 0.296143
v -3.525119 7.674468 -0.296143
v -3.525119 7.935365 -0.296143
v -4.774291 8.543418 0.304583
v -4.774291 9.359645 0.304583
v -4.774291 8.543418 -0.304583
v -4.774291 9.359645 -0.304583
v 0.000000 8.543418 0.304583
v 0.000000 9.034329 0.304583
v 0.000000 8.543418 -0.304583
v 0.000000 9.034329 -0.304583
v -3.919414 8.543418 -0.304583
v -3.919414 9.034330 -0.304583
v -3.919414 8.543418 0.304583
v -3.919414 9.034330 0.304583
v 3.001355 -0.011128 -0.686116
v 3.001355 1.879709 -0.540074
v 2.464928 -0.011128 -0.427787
v 2.579108 1.879709 -0.336731
v 2.332440 -0.011128 0.152675
v 2.474821 1.879709 0.120178
v 2.703660 -0.011128 0.618170
v 2.767025 1.879709 0.486590
v 3.299049 -0.011128 0.618170
v 3.235684 1.879709 0.486590
v 3.670269 -0.011128 0.152675
v 3.527888 1.879709 0.120178
v 3.537782 -0.011128 -0.427787
v 3.423602 1.879709 -0.336731
v 3.336382 1.589359 0.309490
v 3.316881 6.307371 0.291066
v 3.336382 1.589359 -0.309490
v 3.316881 6.307371 -0.291066
v 2.681207 1.589359 0.309490
v 2.700709 6.307371 0.291066
v 2.681207 1.589359 -0.309490
v 2.700709 6.307371 -0.291066
v 3.312782 6.889950 0.289021
v 3.312782 6.889950 -0.289021
v 2.704807 6.889950 -0.289021
v 2.704807 6.889950 0.289021
v 4.008617 6.856381 -0.217084
v 4.008617 6.358080 -0.217084
v 4.008617 6.856381 0.217084
v 4.008617 6.358080 0.217084
v 2.704807 7.700388 0.289021
v 2.704807 7.700388 -0.289021
v 3.312782 7.700388 -0.289021
v 3.312782 7.700388 0.289021
v 4.605825 7.902918 0.238054
v 4.605825 8.542005 0.238054
v 4.605825 7.902918 -0.238054
v 4.605825 8.542005 -0.238054
v 3.012185 7.674467 -0.592285
v 3.012185 7.935364 -0.592285
v 2.499250 7.674467 -0.296143
v 2.499250 7.935364 -0.296143
v 2.499250 7.674467 0.296143
v 2.499250 7.935364 0.296143
v 3.012185 7.674467 0.592285
v 3.012185 7.935364 0.592285
v 3.525119 7.674467 0.296143
v 3.525119 7.935364 0.296143
v 3.525119 7.674467 -0.296143
v 3.525119 7.935364 -0.296143
v 4.774291 8.543417 0.304583
v 4.774291 9.359645 0.304583
v 4.774291 8.543417 -0.304583
v 4.774291 9.359645 -0.304583
v 3.919413 8.543417 -0.304583
v 3.919413 9.034329 -0.304583
v 3.919413 8.543417 0.304583
v 3.919413 9.034329 0.304583
vn 0.4328 0.0694 -0.8988
vn 0.9726 0.0694 -0.2220
vn 0.7799 0.0694 0.6220
vn -0.0000 0.0694 0.9976
vn -0.7799 0.0694 0.6220
vn -0.0000 1.0000 -0.0000
vn -0.9726 0.0694 -0.2220
vn -0.4328 0.0694 -0.8988
vn -0.0000 -1.0000 -0.0000
vn -1.0000 0.0041 -0.0000
vn -0.0000 0.0039 -1.0000
vn 1.0000 0.0041 -0.0000
vn -0.0000 0.0039 1.0000
vn -0.0000 0.0035 -1.0000
vn 1.0000 -0.0000 -0.0000
vn -0.0000 0.0035 1.0000
vn 1.0000 0.0070 -0.0000
vn -1.0000 0.0070 -0.0000
vn -1.0000 -0.0000 -0.0000
vn -0.0000 -0.0000 1.0000
vn -0.0000 -0.0000 -1.0000
vn 0.5000 -0.0000 -0.8660
vn 0.5000 -0.0000 0.8660
vn -0.5000 -0.0000 0.8660
vn -0.5000 -0.0000 -0.8660
vn 0.3557 0.9346 -0.0000
vn -0.3557 0.9346 -0.0000
vt 1.000000 1.000000
vt 0.857143 0.500000
vt 1.000000 0.500000
vt 0.857143 1.000000
vt 0.714286 0.500000
vt 0.714286 1.000000
vt 0.571429 0.500000
vt 0.571429 1.000000
vt 0.428571 0.500000
vt 0.428571 1.000000
vt 0.285714 0.500000
vt 0.250000 0.490000
vt 0.016017 0.196595
vt 0.354132 0.033767
vt 0.285714 1.000000
vt 0.142857 0.500000
vt 0.142857 1.000000
vt 0.000000 0.500000
vt 0.937640 0.399638
vt 0.854132 0.033767
vt 0.516017 0.196595
vt 0.625000 0.000000
vt 0.375000 0.250000
vt 0.375000 0.000000
vt 0.625000 0.250000
vt 0.375000 0.500000
vt 0.625000 0.500000
vt 0.375000 0.750000
vt 0.625000 0.750000
vt 0.375000 1.000000
vt 0.125000 0.750000
vt 0.125000 0.500000
vt 0.625000 1.000000
vt 0.875000 0.750000
vt 0.875000 0.500000
vt 0.833333 0.500000
vt 0.833333 1.000000
vt 0.666667 0.500000
vt 0.666667 1.000000
vt 0.500000 0.500000
vt 0.500000 1.000000
vt 0.333333 0.500000
vt 0.250000 0.010000
vt 0.457846 0.130000
vt 0.333333 1.000000
vt 0.166667 0.500000
vt 0.166667 1.000000
vt -0.000000 0.500000
vt 0.750000 0.010000
vt 0.542154 0.130000
vt 0.542154 0.370000
vt 0.625000 0.294875
vt 0.375000 0.294875
vt 0.625000 0.955125
vt 0.375000 0.955125
vt 0.169875 0.750000
vt 0.169875 0.500000
vt 0.830125 0.750000
vt 0.830125 0.500000
vt 0.483983 0.196595
vt 0.145868 0.033767
vt 0.983983 0.196595
vt 0.562360 0.399638
vt 0.042154 0.130000
vt 0.042154 0.370000
vt 0.957846 0.130000
vt 0.957846 0.370000
vt 0.437640 0.399638
vt 0.062360 0.399638
vt 0.000000 1.000000
vt 0.750000 0.490000
vt 0.645868 0.033767
vt 0.457846 0.370000
vt -0.000000 1.000000
s 0
usemtl Wood
f 2/1/1 3/2/1 1/3/1
f 4/4/2 5/5/2 3/2/2
f 6/6/3 7/7/3 5/5/3
f 8/8/4 9/9/4 7/7/4
f 10/10/5 11/11/5 9/9/5
f 2/12/6 12/13/6 8/14/6
f 12/15/7 13/16/7 11/11/7
f 14/17/8 1/18/8 13/16/8
f 3/19/9 7/20/9 11/21/9
f 21/26/9 15/31/9 17/32/9
f 31/22/6 29/23/6 27/24/6
f 28/25/9 34/26/9 32/23/9
f 33/27/19 32/28/19 34/26/19
f 29/29/20 34/30/20 30/28/20
f 27/26/15 30/31/15 28/32/15
f 32/27/21 27/34/21 28/29/21
f 35/29/6 37/25/6 38/33/6
f 40/22/19 41/23/19 39/24/19
f 42/25/21 45/26/21 41/23/21
f 46/27/15 43/28/15 45/26/15
f 44/29/20 39/30/20 43/28/20
f 45/26/9 39/31/9 41/32/9
f 42/35/6 44/29/6 46/27/6
f 48/1/22 49/36/22 47/3/22
f 50/37/15 51/38/15 49/36/15
f 52/39/23 53/40/23 51/38/23
f 54/41/24 55/42/24 53/40/24
f 54/43/6 52/44/6 48/12/6
f 56/45/19 57/46/19 55/42/19
f 58/47/25 47/48/25 57/46/25
f 53/49/9 55/50/9 57/51/9
f 66/27/15 63/28/15 65/26/15
f 73/2/8 72/1/8 71/3/8
f 73/2/7 76/6/7 74/4/7
f 77/7/5 76/6/5 75/5/5
f 79/9/4 78/8/4 77/7/4
f 81/11/3 80/10/3 79/9/3
f 72/12/6 76/60/6 80/61/6
f 83/16/2 82/15/2 81/11/2
f 71/18/1 84/17/1 83/16/1
f 75/62/9 73/19/9 83/63/9
f 85/31/9 91/26/9 87/32/9
f 29/23/6 97/22/6 27/24/6
f 100/26/9 28/25/9 98/23/9
f 98/28/15 99/27/15 100/26/15
f 100/30/20 29/29/20 30/28/20
f 28/29/21 97/35/21 98/27/21
f 103/25/6 101/29/6 104/33/6
f 107/23/15 106/22/15 105/24/15
f 45/26/21 108/25/21 107/23/21
f 43/28/20 106/33/20 44/29/20
f 105/31/9 45/26/9 107/32/9
f 44/29/6 108/35/6 46/27/6
f 111/36/25 110/1/25 109/3/25
f 113/38/19 112/37/19 111/36/19
f 115/40/24 114/39/24 113/38/24
f 117/42/23 116/41/23 115/40/23
f 118/64/6 120/65/6 110/12/6
f 119/46/15 118/45/15 117/42/15
f 109/48/22 120/47/22 119/46/22
f 115/49/9 113/66/9 111/67/9
f 2/1/1 4/4/1 3/2/1
f 4/4/2 6/6/2 5/5/2
f 6/6/3 8/8/3 7/7/3
f 8/8/4 10/10/4 9/9/4
f 10/10/5 12/15/5 11/11/5
f 6/60/6 4/68/6 2/12/6
f 2/12/6 14/69/6 12/13/6
f 12/13/6 10/61/6 8/14/6
f 8/14/6 6/60/6 2/12/6
f 12/15/7 14/17/7 13/16/7
f 14/17/8 2/70/8 1/18/8
f 13/63/9 1/71/9 11/21/9
f 1/71/9 3/19/9 11/21/9
f 3/19/9 5/62/9 7/20/9
f 7/20/9 9/72/9 11/21/9
f 21/26/9 19/28/9 15/31/9
f 31/22/6 33/25/6 29/23/6
f 28/25/9 30/27/9 34/26/9
f 33/27/19 31/29/19 32/28/19
f 29/29/20 33/33/20 34/30/20
f 27/26/15 29/28/15 30/31/15
f 32/27/21 31/35/21 27/34/21
f 35/29/6 36/27/6 37/25/6
f 40/22/19 42/25/19 41/23/19
f 42/25/21 46/27/21 45/26/21
f 46/27/15 44/29/15 43/28/15
f 44/29/20 40/33/20 39/30/20
f 45/26/9 43/28/9 39/31/9
f 42/35/6 40/34/6 44/29/6
f 48/1/22 50/37/22 49/36/22
f 50/37/15 52/39/15 51/38/15
f 52/39/23 54/41/23 53/40/23
f 54/41/24 56/45/24 55/42/24
f 52/44/6 50/73/6 48/12/6
f 48/12/6 58/65/6 56/64/6
f 56/64/6 54/43/6 48/12/6
f 56/45/19 58/47/19 57/46/19
f 58/47/25 48/74/25 47/48/25
f 57/51/9 47/71/9 53/49/9
f 47/71/9 49/67/9 53/49/9
f 49/67/9 51/66/9 53/49/9
f 66/27/15 64/29/15 63/28/15
f 73/2/8 74/4/8 72/1/8
f 73/2/7 75/5/7 76/6/7
f 77/7/5 78/8/5 76/6/5
f 79/9/4 80/10/4 78/8/4
f 81/11/3 82/15/3 80/10/3
f 72/12/6 74/68/6 76/60/6
f 76/60/6 78/14/6 80/61/6
f 80/61/6 82/13/6 84/69/6
f 84/69/6 72/12/6 80/61/6
f 83/16/2 84/17/2 82/15/2
f 71/18/1 72/70/1 84/17/1
f 73/19/9 71/71/9 83/63/9
f 83/63/9 81/21/9 79/72/9
f 79/72/9 77/20/9 83/63/9
f 77/20/9 75/62/9 83/63/9
f 85/31/9 89/28/9 91/26/9
f 29/23/6 99/25/6 97/22/6
f 100/26/9 30/27/9 28/25/9
f 98/28/15 97/29/15 99/27/15
f 100/30/20 99/33/20 29/29/20
f 28/29/21 27/34/21 97/35/21
f 103/25/6 102/27/6 101/29/6
f 107/23/15 108/25/15 106/22/15
f 45/26/21 46/27/21 108/25/21
f 43/28/20 105/30/20 106/33/20
f 105/31/9 43/28/9 45/26/9
f 44/29/6 106/34/6 108/35/6
f 111/36/25 112/37/25 110/1/25
f 113/38/19 114/39/19 112/37/19
f 115/40/24 116/41/24 114/39/24
f 117/42/23 118/45/23 116/41/23
f 110/12/6 112/73/6 114/44/6
f 114/44/6 116/43/6 110/12/6
f 116/43/6 118/64/6 110/12/6
f 119/46/15 120/47/15 118/45/15
f 109/48/22 110/74/22 120/47/22
f 111/67/9 109/71/9 115/49/9
f 109/71/9 119/51/9 115/49/9
f 119/51/9 117/50/9 115/49/9
usemtl Red_Wood
f 16/22/10 17/23/10 15/24/10
f 18/25/11 21/26/11 17/23/11
f 22/27/12 19/28/12 21/26/12
f 20/29/13 15/30/13 19/28/13
f 18/25/14 25/27/14 22/27/14
f 25/27/15 35/29/15 26/29/15
f 20/29/16 23/33/16 16/33/16
f 22/27/17 26/29/17 20/29/17
f 16/33/18 24/25/18 18/25/18
f 23/34/19 37/25/19 24/25/19
f 24/25/21 36/27/21 25/27/21
f 26/29/20 38/33/20 23/33/20
f 87/23/12 86/22/12 85/24/12
f 87/23/11 92/27/11 88/25/11
f 89/28/10 92/27/10 91/26/10
f 85/30/13 90/29/13 89/28/13
f 95/27/14 88/25/14 92/27/14
f 101/29/19 95/27/19 96/29/19
f 93/33/16 90/29/16 86/33/16
f 96/29/18 92/27/18 90/29/18
f 94/25/17 86/33/17 88/25/17
f 103/25/15 93/34/15 94/25/15
f 102/27/21 94/25/21 95/27/21
f 104/33/20 96/29/20 93/33/20
f 16/22/10 18/25/10 17/23/10
f 18/25/11 22/27/11 21/26/11
f 22/27/12 20/29/12 19/28/12
f 20/29/13 16/33/13 15/30/13
f 18/25/14 24/25/14 25/27/14
f 25/27/15 36/27/15 35/29/15
f 20/29/16 26/29/16 23/33/16
f 22/27/17 25/27/17 26/29/17
f 16/33/18 23/34/18 24/25/18
f 23/34/19 38/34/19 37/25/19
f 24/25/21 37/25/21 36/27/21
f 26/29/20 35/29/20 38/33/20
f 87/23/12 88/25/12 86/22/12
f 87/23/11 91/26/11 92/27/11
f 89/28/10 90/29/10 92/27/10
f 85/30/13 86/33/13 90/29/13
f 95/27/14 94/25/14 88/25/14
f 101/29/19 102/27/19 95/27/19
f 93/33/16 96/29/16 90/29/16
f 96/29/18 95/27/18 92/27/18
f 94/25/17 93/34/17 86/33/17
f 103/25/15 104/34/15 93/34/15
f 102/27/21 103/25/21 94/25/21
f 104/33/20 101/29/20 96/29/20
usemtl Black_Wood
f 60/22/19 61/23/19 59/24/19
f 68/52/21 65/26/21 67/53/21
f 70/54/20 59/30/20 69/55/20
f 65/26/9 69/56/9 67/57/9
f 62/35/26 70/58/26 68/59/26
f 68/59/6 64/29/6 66/27/6
f 67/57/9 59/31/9 61/32/9
f 64/29/20 69/55/20 63/28/20
f 61/23/21 68/52/21 67/53/21
f 123/23/15 122/22/15 121/24/15
f 65/26/21 126/52/21 125/53/21
f 121/30/20 128/54/20 127/55/20
f 127/56/9 65/26/9 125/57/9
f 128/58/27 124/35/27 126/59/27
f 64/29/6 126/59/6 66/27/6
f 121/31/9 125/57/9 123/32/9
f 127/55/20 64/29/20 63/28/20
f 123/23/21 126/52/21 124/25/21
f 60/22/19 62/25/19 61/23/19
f 68/52/21 66/27/21 65/26/21
f 70/54/20 60/33/20 59/30/20
f 65/26/9 63/28/9 69/56/9
f 62/35/26 60/34/26 70/58/26
f 68/59/6 70/58/6 64/29/6
f 67/57/9 69/56/9 59/31/9
f 64/29/20 70/54/20 69/55/20
f 61/23/21 62/25/21 68/52/21
f 123/23/15 124/25/15 122/22/15
f 65/26/21 66/27/21 126/52/21
f 121/30/20 122/33/20 128/54/20
f 127/56/9 63/28/9 65/26/9
f 128/58/27 122/34/27 124/35/27
f 64/29/6 128/58/6 126/59/6
f 121/31/9 127/56/9 125/57/9
f 127/55/20 128/54/20 64/29/20
f 123/23/21 125/53/21 126/52/21
