# Blender 4.1.1
# www.blender.org
mtllib glass.mtl
o Cylinder
v 0.000000 -0.000467 -1.000000
v 0.000000 0.165067 -0.826722
v 0.382683 -0.000467 -0.923880
v 0.316373 0.165067 -0.763791
v 0.707107 -0.000467 -0.707107
v 0.584581 0.165067 -0.584581
v 0.923880 -0.000467 -0.382683
v 0.763791 0.165067 -0.316373
v 1.000000 -0.000467 0.000000
v 0.826722 0.165067 0.000000
v 0.923880 -0.000467 0.382683
v 0.763791 0.165067 0.316373
v 0.707107 -0.000467 0.707107
v 0.584581 0.165067 0.584581
v 0.382683 -0.000467 0.923880
v 0.316373 0.165067 0.763791
v 0.000000 -0.000467 1.000000
v 0.000000 0.165067 0.826722
v -0.382683 -0.000467 0.923880
v -0.316373 0.165067 0.763791
v -0.707107 -0.000467 0.707107
v -0.584581 0.165067 0.584581
v -0.923880 -0.000467 0.382683
v -0.763791 0.165067 0.316373
v -1.000000 -0.000467 0.000000
v -0.826722 0.165067 0.000000
v -0.923880 -0.000467 -0.382683
v -0.763791 0.165067 -0.316373
v -0.707107 -0.000467 -0.707107
v -0.584581 0.165067 -0.584581
v -0.382683 -0.000467 -0.923880
v -0.316373 0.165067 -0.763791
v 0.382683 0.165067 -0.923880
v 0.000000 0.165067 -1.000000
v 0.707107 0.165067 -0.707107
v 0.923880 0.165067 -0.382683
v 1.000000 0.165067 0.000000
v 0.923880 0.165067 0.382683
v 0.707107 0.165067 0.707107
v 0.382683 0.165067 0.923880
v 0.000000 0.165067 1.000000
v -0.382683 0.165067 0.923880
v -0.707107 0.165067 0.707107
v -0.923880 0.165067 0.382683
v -1.000000 0.165067 0.000000
v -0.923880 0.165067 -0.382683
v -0.707107 0.165067 -0.707107
v -0.382683 0.165067 -0.923880
v 0.382683 2.681767 -0.923880
v 0.000000 2.681767 -1.000000
v 0.707107 2.681767 -0.707107
v 0.923880 2.681767 -0.382683
v 1.000000 2.681767 0.000000
v 0.923880 2.681767 0.382683
v 0.707107 2.681767 0.707107
v 0.382683 2.681767 0.923880
v 0.000000 2.681767 1.000000
v -0.382683 2.681767 0.923880
v -0.707107 2.681767 0.707107
v -0.923880 2.681767 0.382683
v -1.000000 2.681767 0.000000
v -0.923880 2.681767 -0.382683
v -0.707107 2.681767 -0.707107
v -0.382683 2.681767 -0.923880
v 0.316373 2.681767 -0.763791
v 0.000000 2.681767 -0.826722
v 0.584581 2.681767 -0.584581
v 0.763791 2.681767 -0.316373
v 0.826722 2.681767 0.000000
v 0.763791 2.681767 0.316373
v 0.584581 2.681767 0.584581
v 0.316373 2.681767 0.763791
v 0.000000 2.681767 0.826722
v -0.316373 2.681767 0.763791
v -0.584581 2.681767 0.584581
v -0.763791 2.681767 0.316373
v -0.826722 2.681767 0.000000
v -0.763791 2.681767 -0.316373
v -0.584581 2.681767 -0.584581
v -0.316373 2.681767 -0.763791
vn 0.1951 -0.0000 -0.9808
vn 0.5556 -0.0000 -0.8315
vn 0.8315 -0.0000 -0.5556
vn 0.9808 -0.0000 -0.1951
vn 0.9808 -0.0000 0.1951
vn 0.8315 -0.0000 0.5556
vn 0.5556 -0.0000 0.8315
vn 0.1951 -0.0000 0.9808
vn -0.1951 -0.0000 0.9808
vn -0.5556 -0.0000 0.8315
vn -0.8315 -0.0000 0.5556
vn -0.9808 -0.0000 0.1951
vn -0.9808 -0.0000 -0.1951
vn -0.8315 -0.0000 -0.5556
vn -0.0000 1.0000 -0.0000
vn -0.5556 -0.0000 -0.8315
vn -0.1951 -0.0000 -0.9808
vn -0.0000 -1.0000 -0.0000
vt 1.000000 1.000000
vt 0.937500 0.500000
vt 1.000000 0.500000
vt 0.937500 1.000000
vt 0.875000 0.500000
vt 0.875000 1.000000
vt 0.812500 0.500000
vt 0.812500 1.000000
vt 0.750000 0.500000
vt 0.750000 1.000000
vt 0.687500 0.500000
vt 0.687500 1.000000
vt 0.625000 0.500000
vt 0.625000 1.000000
vt 0.562500 0.500000
vt 0.562500 1.000000
vt 0.500000 0.500000
vt 0.500000 1.000000
vt 0.437500 0.500000
vt 0.437500 1.000000
vt 0.375000 0.500000
vt 0.375000 1.000000
vt 0.312500 0.500000
vt 0.312500 1.000000
vt 0.250000 0.500000
vt 0.250000 1.000000
vt 0.187500 0.500000
vt 0.187500 1.000000
vt 0.125000 0.500000
vt 0.109701 0.109701
vt 0.390299 0.109701
vt 0.390299 0.390299
vt 0.125000 1.000000
vt 0.062500 0.500000
vt 0.062500 1.000000
vt 0.000000 0.500000
vt 0.841844 0.028269
vt 0.528269 0.158156
vt 0.658156 0.471731
vt 0.433310 0.174071
vt 0.448413 0.250000
vt 0.433310 0.325929
vt 0.250000 0.448413
vt 0.174071 0.433310
vt 0.325929 0.433310
vt 0.109701 0.390299
vt 0.066690 0.325929
vt 0.000000 1.000000
vt 0.341844 0.471731
vt 0.250000 0.490000
vt 0.419706 0.419706
vt 0.471731 0.341844
vt 0.471731 0.158156
vt 0.490000 0.250000
vt 0.419706 0.080294
vt 0.325929 0.066690
vt 0.250000 0.051587
vt 0.341844 0.028269
vt 0.158156 0.028269
vt 0.250000 0.010000
vt 0.174071 0.066690
vt 0.080294 0.080294
vt 0.066690 0.174071
vt 0.051587 0.250000
vt 0.028269 0.158156
vt 0.028269 0.341844
vt 0.010000 0.250000
vt 0.080294 0.419706
vt 0.158156 0.471731
vt 0.750000 0.490000
vt 0.841844 0.471731
vt 0.919706 0.419706
vt 0.971731 0.341844
vt 0.990000 0.250000
vt 0.971731 0.158156
vt 0.919706 0.080294
vt 0.750000 0.010000
vt 0.658156 0.028269
vt 0.580294 0.080294
vt 0.510000 0.250000
vt 0.528269 0.341844
vt 0.580294 0.419706
s 0
usemtl Material.001
f 34/1/1 3/2/1 1/3/1
f 33/4/2 5/5/2 3/2/2
f 35/6/3 7/7/3 5/5/3
f 36/8/4 9/9/4 7/7/4
f 37/10/5 11/11/5 9/9/5
f 38/12/6 13/13/6 11/11/6
f 39/14/7 15/15/7 13/13/7
f 40/16/8 17/17/8 15/15/8
f 41/18/9 19/19/9 17/17/9
f 42/20/10 21/21/10 19/19/10
f 43/22/11 23/23/11 21/21/11
f 44/24/12 25/25/12 23/23/12
f 45/26/13 27/27/13 25/25/13
f 46/28/14 29/29/14 27/27/14
f 22/30/15 14/31/15 6/32/15
f 47/33/16 31/34/16 29/29/16
f 48/35/17 1/36/17 31/34/17
f 15/37/18 23/38/18 31/39/18
f 41/18/9 58/20/9 42/20/9
f 12/40/13 69/41/13 10/41/13
f 45/26/13 62/28/13 46/28/13
f 36/8/4 53/10/4 37/10/4
f 10/41/12 68/42/12 8/42/12
f 8/42/11 67/32/11 6/32/11
f 40/16/8 57/18/8 41/18/8
f 2/43/8 80/44/8 32/44/8
f 6/32/10 65/45/10 4/45/10
f 32/44/7 79/46/7 30/46/7
f 44/24/12 61/26/12 45/26/12
f 35/6/3 52/8/3 36/8/3
f 4/45/9 66/43/9 2/43/9
f 30/46/6 78/47/6 28/47/6
f 48/35/17 50/48/17 34/48/17
f 39/14/7 56/16/7 40/16/7
f 66/43/15 49/49/15 50/50/15
f 65/45/15 51/51/15 49/49/15
f 68/42/15 51/51/15 67/32/15
f 69/41/15 52/52/15 68/42/15
f 69/41/15 54/53/15 53/54/15
f 70/40/15 55/55/15 54/53/15
f 72/56/15 55/55/15 71/31/15
f 73/57/15 56/58/15 72/56/15
f 73/57/15 58/59/15 57/60/15
f 74/61/15 59/62/15 58/59/15
f 76/63/15 59/62/15 75/30/15
f 77/64/15 60/65/15 76/63/15
f 77/64/15 62/66/15 61/67/15
f 78/47/15 63/68/15 62/66/15
f 80/44/15 63/68/15 79/46/15
f 66/43/15 64/69/15 80/44/15
f 14/31/14 70/40/14 12/40/14
f 16/56/16 71/31/16 14/31/16
f 37/10/5 54/12/5 38/12/5
f 46/28/14 63/33/14 47/33/14
f 34/1/1 49/4/1 33/4/1
f 18/57/17 72/56/17 16/56/17
f 42/20/10 59/22/10 43/22/10
f 20/61/1 73/57/1 18/57/1
f 22/30/2 74/61/2 20/61/2
f 38/12/6 55/14/6 39/14/6
f 47/33/16 64/35/16 48/35/16
f 24/63/3 75/30/3 22/30/3
f 33/4/2 51/6/2 35/6/2
f 43/22/11 60/24/11 44/24/11
f 26/64/4 76/63/4 24/63/4
f 28/47/5 77/64/5 26/64/5
f 34/1/1 33/4/1 3/2/1
f 33/4/2 35/6/2 5/5/2
f 35/6/3 36/8/3 7/7/3
f 36/8/4 37/10/4 9/9/4
f 37/10/5 38/12/5 11/11/5
f 38/12/6 39/14/6 13/13/6
f 39/14/7 40/16/7 15/15/7
f 40/16/8 41/18/8 17/17/8
f 41/18/9 42/20/9 19/19/9
f 42/20/10 43/22/10 21/21/10
f 43/22/11 44/24/11 23/23/11
f 44/24/12 45/26/12 25/25/12
f 45/26/13 46/28/13 27/27/13
f 46/28/14 47/33/14 29/29/14
f 6/32/15 4/45/15 2/43/15
f 2/43/15 32/44/15 30/46/15
f 30/46/15 28/47/15 26/64/15
f 26/64/15 24/63/15 22/30/15
f 22/30/15 20/61/15 18/57/15
f 18/57/15 16/56/15 14/31/15
f 14/31/15 12/40/15 10/41/15
f 10/41/15 8/42/15 6/32/15
f 6/32/15 2/43/15 30/46/15
f 30/46/15 26/64/15 22/30/15
f 22/30/15 18/57/15 14/31/15
f 14/31/15 10/41/15 6/32/15
f 6/32/15 30/46/15 22/30/15
f 47/33/16 48/35/16 31/34/16
f 48/35/17 34/48/17 1/36/17
f 31/39/18 1/70/18 3/71/18
f 3/71/18 5/72/18 31/39/18
f 5/72/18 7/73/18 31/39/18
f 7/73/18 9/74/18 11/75/18
f 11/75/18 13/76/18 7/73/18
f 13/76/18 15/37/18 7/73/18
f 15/37/18 17/77/18 19/78/18
f 19/78/18 21/79/18 15/37/18
f 21/79/18 23/38/18 15/37/18
f 23/38/18 25/80/18 27/81/18
f 27/81/18 29/82/18 23/38/18
f 29/82/18 31/39/18 23/38/18
f 31/39/18 7/73/18 15/37/18
f 41/18/9 57/18/9 58/20/9
f 12/40/13 70/40/13 69/41/13
f 45/26/13 61/26/13 62/28/13
f 36/8/4 52/8/4 53/10/4
f 10/41/12 69/41/12 68/42/12
f 8/42/11 68/42/11 67/32/11
f 40/16/8 56/16/8 57/18/8
f 2/43/8 66/43/8 80/44/8
f 6/32/10 67/32/10 65/45/10
f 32/44/7 80/44/7 79/46/7
f 44/24/12 60/24/12 61/26/12
f 35/6/3 51/6/3 52/8/3
f 4/45/9 65/45/9 66/43/9
f 30/46/6 79/46/6 78/47/6
f 48/35/17 64/35/17 50/48/17
f 39/14/7 55/14/7 56/16/7
f 66/43/15 65/45/15 49/49/15
f 65/45/15 67/32/15 51/51/15
f 68/42/15 52/52/15 51/51/15
f 69/41/15 53/54/15 52/52/15
f 69/41/15 70/40/15 54/53/15
f 70/40/15 71/31/15 55/55/15
f 72/56/15 56/58/15 55/55/15
f 73/57/15 57/60/15 56/58/15
f 73/57/15 74/61/15 58/59/15
f 74/61/15 75/30/15 59/62/15
f 76/63/15 60/65/15 59/62/15
f 77/64/15 61/67/15 60/65/15
f 77/64/15 78/47/15 62/66/15
f 78/47/15 79/46/15 63/68/15
f 80/44/15 64/69/15 63/68/15
f 66/43/15 50/50/15 64/69/15
f 14/31/14 71/31/14 70/40/14
f 16/56/16 72/56/16 71/31/16
f 37/10/5 53/10/5 54/12/5
f 46/28/14 62/28/14 63/33/14
f 34/1/1 50/1/1 49/4/1
f 18/57/17 73/57/17 72/56/17
f 42/20/10 58/20/10 59/22/10
f 20/61/1 74/61/1 73/57/1
f 22/30/2 75/30/2 74/61/2
f 38/12/6 54/12/6 55/14/6
f 47/33/16 63/33/16 64/35/16
f 24/63/3 76/63/3 75/30/3
f 33/4/2 49/4/2 51/6/2
f 43/22/11 59/22/11 60/24/11
f 26/64/4 77/64/4 76/63/4
f 28/47/5 78/47/5 77/64/5
